<svg width="17" height="15" viewBox="0 0 17 15" fill="none" xmlns="http://www.w3.org/2000/svg">
<path fill-rule="evenodd" clip-rule="evenodd" d="M8.21732 14.0626C8.35237 14.0626 8.48189 14.0132 8.57739 13.9253C8.67288 13.8374 8.72653 13.7182 8.72653 13.5939V2.53792L11.9305 5.48823C12.0261 5.57625 12.1558 5.6257 12.291 5.6257C12.4262 5.6257 12.5559 5.57625 12.6515 5.48823C12.7471 5.40021 12.8008 5.28083 12.8008 5.15636C12.8008 5.03188 12.7471 4.9125 12.6515 4.82448L8.57784 1.07448C8.53054 1.03083 8.47435 0.996194 8.41248 0.972562C8.35062 0.948931 8.2843 0.936768 8.21732 0.936768C8.15034 0.936768 8.08402 0.948931 8.02216 0.972562C7.96029 0.996194 7.9041 1.03083 7.8568 1.07448L3.78314 4.82448C3.73579 4.86806 3.69824 4.9198 3.67261 4.97675C3.64699 5.03369 3.6338 5.09472 3.6338 5.15636C3.6338 5.28083 3.68752 5.40021 3.78314 5.48823C3.87875 5.57625 4.00843 5.6257 4.14366 5.6257C4.27888 5.6257 4.40856 5.57625 4.50418 5.48823L7.70811 2.53792V13.5939C7.70811 13.7182 7.76176 13.8374 7.85726 13.9253C7.95275 14.0132 8.08227 14.0626 8.21732 14.0626Z" fill="#578D00"/>
</svg>
