<svg width="662" height="54" viewBox="0 0 662 54" fill="none" xmlns="http://www.w3.org/2000/svg">
<path d="M1.43555 45.4043L8.76574 41.4798C16.0959 37.5554 30.7563 29.7065 45.4167 20.0275C60.0771 10.3486 64.2075 35.2559 78.8679 30.4218C93.5283 25.5878 114.28 -0.266552 128.941 1.20414C143.601 2.67484 156.61 9.06539 171.27 20.0275C185.931 30.9897 206.681 37.8024 221.341 46.668C236.002 55.5336 250.662 52.4409 265.322 51.2134C279.983 49.9858 294.643 50.6233 309.304 43.6028C323.964 36.5822 338.624 21.9037 353.285 18.844C367.945 15.7843 382.605 24.3435 397.266 26.9473C411.926 29.5511 426.587 26.1995 441.247 18.8406C455.907 11.4816 484.407 26.3163 499.067 20.0274C513.728 13.7386 531.383 9.90998 546.043 18.8407C560.703 27.7715 558.53 23.2606 573.19 30.4218C587.851 37.583 602.511 32.8326 617.172 31.8763C631.832 30.9199 646.492 33.7576 653.822 35.1765L661.153 36.5954" stroke="#18A0FB" stroke-width="2"/>
</svg>
