<svg width="125" height="119" viewBox="0 0 125 119" fill="none" xmlns="http://www.w3.org/2000/svg">
<g clip-path="url(#clip0_1181_911)">
<path d="M124.754 106.003C124.755 107.679 124.409 109.34 123.737 110.889C123.064 112.438 122.077 113.846 120.832 115.032C119.587 116.218 118.11 117.158 116.483 117.8C114.856 118.442 113.112 118.773 111.352 118.773H13.8027C12.0422 118.772 10.2991 118.441 8.67298 117.799C7.04685 117.157 5.56953 116.216 4.32537 115.03C3.08121 113.844 2.09458 112.436 1.4218 110.888C0.74902 109.339 0.403273 107.679 0.404299 106.003V13.1514C0.403781 9.76761 1.81498 6.52219 4.32756 4.12882C6.84015 1.73544 10.2484 0.39009 13.8027 0.388611H111.35C113.11 0.388611 114.853 0.718756 116.479 1.36019C118.106 2.00162 119.583 2.94178 120.828 4.12696C122.072 5.31214 123.06 6.71912 123.733 8.26755C124.406 9.81598 124.752 11.4755 124.752 13.1514L124.754 106.003Z" fill="#E6E7E8"/>
<path d="M18.6035 8.092V110.637M31.2031 8.092V110.637M43.8027 8.092V110.637M56.4023 8.092V110.637M69.0039 8.092V110.637M81.6016 8.092V110.637M94.1992 8.092V110.637M106.799 8.092V110.637M8.36133 101.715H116.076M8.36133 89.7148H116.076M8.36133 77.7256H116.076M8.36133 65.7289H116.076M8.36133 53.7359H116.076M8.36133 41.7411H116.076M8.36133 29.7481H116.076M8.36133 17.7533H116.076" stroke="#000055" stroke-opacity="0.221" stroke-width="0.4" stroke-linecap="round"/>
<path d="M24.0294 102.823C31.2247 93.2309 38.4258 83.6347 45.6114 74.0422L38.002 74.1798C48.0782 83.7704 58.1544 93.3667 68.2305 102.961C70.7071 105.322 74.8516 104.891 76.3633 101.858C89.3184 75.8272 102.275 49.7773 115.231 23.7461C117.578 19.0214 108.305 16.0836 105.94 20.8306C92.9844 46.8618 80.0274 72.9117 67.0743 98.9429L75.2051 97.8403C65.129 88.2496 55.0528 78.6534 44.9766 69.059C42.9981 67.1755 39.1329 66.8427 37.3633 69.1966C30.168 78.7892 22.9669 88.3854 15.7618 97.9779C12.4083 102.45 20.8692 107.013 24.0137 102.823" fill="#EE4036"/>
</g>
<defs>
<clipPath id="clip0_1181_911">
<rect width="125" height="119" fill="white"/>
</clipPath>
</defs>
</svg>
