<svg width="102" height="103" viewBox="0 0 102 103" fill="none" xmlns="http://www.w3.org/2000/svg">
<path d="M19.125 83.6875V12.875H14.875V87.9792H89.25V83.6875H19.125Z" fill="#CFD8DC"/>
<path d="M82.875 30.0417C86.3958 30.0417 89.25 27.1595 89.25 23.6042C89.25 20.0488 86.3958 17.1667 82.875 17.1667C79.3542 17.1667 76.5 20.0488 76.5 23.6042C76.5 27.1595 79.3542 30.0417 82.875 30.0417Z" fill="#5E14FB"/>
<path d="M65.875 34.3333C69.3958 34.3333 72.25 31.4512 72.25 27.8958C72.25 24.3405 69.3958 21.4583 65.875 21.4583C62.3542 21.4583 59.5 24.3405 59.5 27.8958C59.5 31.4512 62.3542 34.3333 65.875 34.3333Z" fill="#5E14FB"/>
<path d="M78.625 47.2083C82.1458 47.2083 85 44.3262 85 40.7708C85 37.2155 82.1458 34.3333 78.625 34.3333C75.1042 34.3333 72.25 37.2155 72.25 40.7708C72.25 44.3262 75.1042 47.2083 78.625 47.2083Z" fill="#5E14FB"/>
<path d="M72.25 62.2292C75.7708 62.2292 78.625 59.347 78.625 55.7917C78.625 52.2364 75.7708 49.3542 72.25 49.3542C68.7292 49.3542 65.875 52.2364 65.875 55.7917C65.875 59.347 68.7292 62.2292 72.25 62.2292Z" fill="#5E14FB"/>
<path d="M59.5 49.3542C63.0208 49.3542 65.875 46.472 65.875 42.9167C65.875 39.3613 63.0208 36.4792 59.5 36.4792C55.9792 36.4792 53.125 39.3613 53.125 42.9167C53.125 46.472 55.9792 49.3542 59.5 49.3542Z" fill="#5E14FB"/>
<path d="M55.25 66.5208C58.7708 66.5208 61.625 63.6387 61.625 60.0833C61.625 56.528 58.7708 53.6458 55.25 53.6458C51.7292 53.6458 48.875 56.528 48.875 60.0833C48.875 63.6387 51.7292 66.5208 55.25 66.5208Z" fill="#5E14FB"/>
<path d="M42.5 55.7917C46.0208 55.7917 48.875 52.9095 48.875 49.3542C48.875 45.7988 46.0208 42.9167 42.5 42.9167C38.9792 42.9167 36.125 45.7988 36.125 49.3542C36.125 52.9095 38.9792 55.7917 42.5 55.7917Z" fill="#5E14FB"/>
<path d="M44.625 77.25C48.1458 77.25 51 74.3678 51 70.8125C51 67.2572 48.1458 64.375 44.625 64.375C41.1042 64.375 38.25 67.2572 38.25 70.8125C38.25 74.3678 41.1042 77.25 44.625 77.25Z" fill="#5E14FB"/>
<path d="M29.75 70.8125C33.2708 70.8125 36.125 67.9303 36.125 64.375C36.125 60.8197 33.2708 57.9375 29.75 57.9375C26.2292 57.9375 23.375 60.8197 23.375 64.375C23.375 67.9303 26.2292 70.8125 29.75 70.8125Z" fill="#5E14FB"/>
</svg>
