<svg width="112" height="132" viewBox="0 0 112 132" fill="none" xmlns="http://www.w3.org/2000/svg">
<path d="M104.712 11.4727H7C6.73893 11.4727 6.48855 11.3504 6.30394 11.1329C6.11934 10.9153 6.01562 10.6202 6.01562 10.3125C6.01562 10.0048 6.11934 9.70972 6.30394 9.49215C6.48855 9.27457 6.73893 9.15234 7 9.15234H104.712C104.973 9.15234 105.224 9.27457 105.408 9.49215C105.593 9.70972 105.697 10.0048 105.697 10.3125C105.697 10.6202 105.593 10.9153 105.408 11.1329C105.224 11.3504 104.973 11.4727 104.712 11.4727ZM105.697 23.0531C105.697 22.7454 105.593 22.4503 105.408 22.2327C105.224 22.0152 104.973 21.8929 104.712 21.8929H7C6.73893 21.8929 6.48855 22.0152 6.30394 22.2327C6.11934 22.4503 6.01562 22.7454 6.01562 23.0531C6.01562 23.3608 6.11934 23.6559 6.30394 23.8734C6.48855 24.091 6.73893 24.2132 7 24.2132H104.712C104.973 24.2132 105.224 24.091 105.408 23.8734C105.593 23.6559 105.697 23.3608 105.697 23.0531ZM105.697 35.7937C105.697 35.486 105.593 35.1909 105.408 34.9733C105.224 34.7557 104.973 34.6335 104.712 34.6335H7C6.73893 34.6335 6.48855 34.7557 6.30394 34.9733C6.11934 35.1909 6.01562 35.486 6.01562 35.7937C6.01562 36.1013 6.11934 36.3964 6.30394 36.614C6.48855 36.8316 6.73893 36.9538 7 36.9538H104.712C104.973 36.9538 105.224 36.8316 105.408 36.614C105.593 36.3964 105.697 36.1013 105.697 35.7937ZM105.697 48.5342C105.697 48.2265 105.593 47.9315 105.408 47.7139C105.224 47.4963 104.973 47.3741 104.712 47.3741H7C6.73893 47.3741 6.48855 47.4963 6.30394 47.7139C6.11934 47.9315 6.01562 48.2265 6.01562 48.5342C6.01562 48.8419 6.11934 49.137 6.30394 49.3546C6.48855 49.5722 6.73893 49.6944 7 49.6944H104.712C104.973 49.6944 105.224 49.5722 105.408 49.3546C105.593 49.137 105.697 48.8419 105.697 48.5342ZM105.697 61.2748C105.697 60.9671 105.593 60.672 105.408 60.4545C105.224 60.2369 104.973 60.1147 104.712 60.1147H7C6.73893 60.1147 6.48855 60.2369 6.30394 60.4545C6.11934 60.672 6.01562 60.9671 6.01562 61.2748C6.01562 61.5825 6.11934 61.8776 6.30394 62.0952C6.48855 62.3127 6.73893 62.435 7 62.435H104.712C104.973 62.435 105.224 62.3127 105.408 62.0952C105.593 61.8776 105.697 61.5825 105.697 61.2748ZM105.697 74.0154C105.697 73.7077 105.593 73.4126 105.408 73.195C105.224 72.9775 104.973 72.8552 104.712 72.8552H7C6.73893 72.8552 6.48855 72.9775 6.30394 73.195C6.11934 73.4126 6.01562 73.7077 6.01562 74.0154C6.01562 74.3231 6.11934 74.6182 6.30394 74.8357C6.48855 75.0533 6.73893 75.1755 7 75.1755H104.712C104.973 75.1755 105.224 75.0533 105.408 74.8357C105.593 74.6182 105.697 74.3231 105.697 74.0154ZM105.697 86.756C105.697 86.4483 105.593 86.1532 105.408 85.9356C105.224 85.718 104.973 85.5958 104.712 85.5958H7C6.73893 85.5958 6.48855 85.718 6.30394 85.9356C6.11934 86.1532 6.01562 86.4483 6.01562 86.756C6.01562 87.0637 6.11934 87.3587 6.30394 87.5763C6.48855 87.7939 6.73893 87.9161 7 87.9161H104.712C104.973 87.9161 105.224 87.7939 105.408 87.5763C105.593 87.3587 105.697 87.0637 105.697 86.756ZM105.697 99.4965C105.697 99.1889 105.593 98.8938 105.408 98.6762C105.224 98.4586 104.973 98.3364 104.712 98.3364H7C6.73893 98.3364 6.48855 98.4586 6.30394 98.6762C6.11934 98.8938 6.01562 99.1889 6.01562 99.4965C6.01562 99.8042 6.11934 100.099 6.30394 100.317C6.48855 100.534 6.73893 100.657 7 100.657H104.712C104.973 100.657 105.224 100.534 105.408 100.317C105.593 100.099 105.697 99.8042 105.697 99.4965ZM105.697 112.237C105.697 111.929 105.593 111.634 105.408 111.417C105.224 111.199 104.973 111.077 104.712 111.077H7C6.73893 111.077 6.48855 111.199 6.30394 111.417C6.11934 111.634 6.01562 111.929 6.01562 112.237C6.01562 112.545 6.11934 112.84 6.30394 113.057C6.48855 113.275 6.73893 113.397 7 113.397H104.712C104.973 113.397 105.224 113.275 105.408 113.057C105.593 112.84 105.697 112.545 105.697 112.237Z" fill="#DCE2E2"/>
<path d="M40.2414 124.631H18.084V35.4209C18.084 32.2333 20.2765 29.6492 22.9811 29.6492H35.3442C38.0489 29.6492 40.2414 32.2333 40.2414 35.4209V124.631Z" fill="#FF473E"/>
<path d="M69.6569 124.631H47.4995V76.3607C47.4995 73.1731 49.692 70.5891 52.3967 70.5891H64.7598C67.4644 70.5891 69.6569 73.1731 69.6569 76.3607V124.631Z" fill="#00B1FF"/>
<path d="M99.0722 124.631H76.915V20.8596C76.915 17.672 79.1076 15.088 81.8122 15.088H94.1753C96.8799 15.088 99.0724 17.672 99.0724 20.8596L99.0722 124.631Z" fill="#A97DFF"/>
<path d="M104.712 126.178H7C6.59389 126.178 6.20441 125.988 5.91724 125.649C5.63008 125.311 5.46875 124.852 5.46875 124.373V10.3125C5.46875 9.83387 5.63008 9.37484 5.91724 9.03639C6.20441 8.69795 6.59389 8.50781 7 8.50781C7.40611 8.50781 7.79559 8.69795 8.08276 9.03639C8.36992 9.37484 8.53125 9.83387 8.53125 10.3125V122.569H104.712C105.118 122.569 105.508 122.759 105.795 123.097C106.082 123.436 106.244 123.895 106.244 124.373C106.244 124.852 106.082 125.311 105.795 125.649C105.508 125.988 105.118 126.178 104.712 126.178Z" fill="#B9C5C6"/>
</svg>
