<svg width="51" height="51" viewBox="0 0 51 51" fill="none" xmlns="http://www.w3.org/2000/svg">
<path fill-rule="evenodd" clip-rule="evenodd" d="M34.7728 18.5454C34.7728 21.0047 33.7958 23.3633 32.0568 25.1022C30.3179 26.8412 27.9593 27.8182 25.5 27.8182C23.0407 27.8182 20.6822 26.8412 18.9432 25.1022C17.2042 23.3633 16.2273 21.0047 16.2273 18.5454C16.2273 16.0862 17.2042 13.7276 18.9432 11.9886C20.6822 10.2497 23.0407 9.27271 25.5 9.27271C27.9593 9.27271 30.3179 10.2497 32.0568 11.9886C33.7958 13.7276 34.7728 16.0862 34.7728 18.5454ZM30.1364 18.5454C30.1364 19.7751 29.6479 20.9543 28.7784 21.8238C27.9089 22.6933 26.7297 23.1818 25.5 23.1818C24.2704 23.1818 23.0911 22.6933 22.2216 21.8238C21.3521 20.9543 20.8637 19.7751 20.8637 18.5454C20.8637 17.3158 21.3521 16.1365 22.2216 15.267C23.0911 14.3975 24.2704 13.9091 25.5 13.9091C26.7297 13.9091 27.9089 14.3975 28.7784 15.267C29.6479 16.1365 30.1364 17.3158 30.1364 18.5454Z" fill="white"/>
<path fill-rule="evenodd" clip-rule="evenodd" d="M25.5 0C11.417 0 0 11.417 0 25.5C0 39.583 11.417 51 25.5 51C39.583 51 51 39.583 51 25.5C51 11.417 39.583 0 25.5 0ZM4.63636 25.5C4.63636 30.345 6.28923 34.8052 9.05945 38.3474C11.0049 35.7925 13.5148 33.722 16.3929 32.2976C19.271 30.8733 22.4394 30.1336 25.6507 30.1364C28.8204 30.1334 31.949 30.8539 34.7981 32.2431C37.6471 33.6323 40.1416 35.6535 42.0912 38.1526C44.0998 35.5183 45.4522 32.4435 46.0365 29.1826C46.6208 25.9218 46.4203 22.5687 45.4514 19.4008C44.4826 16.2329 42.7733 13.3412 40.465 10.9651C38.1567 8.58893 35.3158 6.79658 32.1772 5.73636C29.0387 4.67614 25.6929 4.37852 22.4165 4.86812C19.1401 5.35772 16.0274 6.62048 13.336 8.5519C10.6445 10.4833 8.45165 13.0279 6.93885 15.975C5.42605 18.9222 4.63678 22.1872 4.63636 25.5ZM25.5 46.3636C20.7105 46.3708 16.0656 44.7232 12.3513 41.6995C13.8463 39.5592 15.8363 37.8117 18.1518 36.6057C20.4673 35.3997 23.0399 34.7709 25.6507 34.7727C28.2289 34.7707 30.7704 35.3837 33.0641 36.561C35.3578 37.7383 37.3375 39.4459 38.8388 41.5418C35.0956 44.6637 30.3742 46.3705 25.5 46.3636Z" fill="white"/>
</svg>
