<svg width="106" height="144" viewBox="0 0 106 144" fill="none" xmlns="http://www.w3.org/2000/svg">
<path d="M12.4772 79.3587V16.6717C12.4772 12.5153 13.6864 8.52917 15.8388 5.59015C17.9912 2.65113 20.9105 1 23.9545 1H92.8179C95.8619 1 98.7811 2.65113 100.934 5.59015C103.086 8.52917 104.295 12.5153 104.295 16.6717V118.538C104.295 126.374 100.852 142.046 87.0793 142.046M87.0793 142.046H18.2159C12.4772 142.046 1 137.344 1 118.538V102.866H69.8634V118.538C69.8634 137.344 81.3407 142.046 87.0793 142.046Z" stroke="#3A3EAC" stroke-width="2" stroke-linecap="round" stroke-linejoin="round"/>
<line x1="24.0215" y1="15.0004" x2="92.431" y2="15.0004" stroke="#3A3EAC" stroke-width="2"/>
<line x1="24.0317" y1="32.4243" x2="92.4413" y2="32.4243" stroke="#3A3EAC" stroke-width="2"/>
<line x1="24.0317" y1="47.8258" x2="92.4413" y2="47.8258" stroke="#3A3EAC" stroke-width="2"/>
<line x1="24.0317" y1="66.4698" x2="92.4413" y2="66.4698" stroke="#3A3EAC" stroke-width="2"/>
<line x1="24.0317" y1="85.1138" x2="92.4413" y2="85.1138" stroke="#3A3EAC" stroke-width="2"/>
<line x1="70.0957" y1="103.758" x2="92.4298" y2="103.758" stroke="#3A3EAC" stroke-width="2"/>
<line x1="70.1162" y1="120.654" x2="92.4503" y2="120.654" stroke="#3A3EAC" stroke-width="2"/>
</svg>
