<svg width="36" height="33" viewBox="0 0 36 33" fill="none" xmlns="http://www.w3.org/2000/svg">
<path fill-rule="evenodd" clip-rule="evenodd" d="M17.9999 28.875C17.5523 28.875 17.1231 28.712 16.8067 28.4219C16.4902 28.1318 16.3124 27.7384 16.3124 27.3281V9.405L9.0674 16.0463C8.74751 16.3195 8.3244 16.4682 7.88722 16.4612C7.45005 16.4541 7.03293 16.2918 6.72375 16.0083C6.41457 15.7249 6.23747 15.3426 6.22976 14.9418C6.22204 14.5411 6.38432 14.1532 6.6824 13.86L16.8074 4.57875C17.1238 4.28907 17.5527 4.12636 17.9999 4.12636C18.4471 4.12636 18.876 4.28907 19.1924 4.57875L29.3174 13.86C29.6155 14.1532 29.7778 14.5411 29.77 14.9418C29.7623 15.3426 29.5852 15.7249 29.276 16.0083C28.9669 16.2918 28.5498 16.4541 28.1126 16.4612C27.6754 16.4682 27.2523 16.3195 26.9324 16.0463L19.6874 9.405V27.3281C19.6874 27.7384 19.5096 28.1318 19.1931 28.4219C18.8767 28.712 18.4475 28.875 17.9999 28.875Z" fill="#1BC022"/>
</svg>
