<svg width="36" height="36" viewBox="0 0 36 36" fill="none" xmlns="http://www.w3.org/2000/svg">
<path d="M14.9136 10.5322C14.9136 10.0195 15.0656 9.51822 15.3505 9.09187C15.6354 8.66552 16.0403 8.33322 16.514 8.13699C16.9877 7.94076 17.509 7.88942 18.0119 7.98946C18.5149 8.08949 18.9768 8.33641 19.3394 8.69899C19.702 9.06157 19.9489 9.52353 20.0489 10.0264C20.149 10.5294 20.0976 11.0506 19.9014 11.5244C19.7052 11.9981 19.3729 12.403 18.9465 12.6879C18.5202 12.9728 18.0189 13.1248 17.5062 13.1248C16.8186 13.1248 16.1591 12.8517 15.6729 12.3655C15.1867 11.8793 14.9136 11.2198 14.9136 10.5322ZM35.6543 17.6619C35.6543 21.123 34.6279 24.5065 32.705 27.3843C30.7821 30.2622 28.049 32.5052 24.8513 33.8298C21.6536 35.1543 18.1349 35.5008 14.7402 34.8256C11.3456 34.1504 8.22735 32.4836 5.77994 30.0362C3.33252 27.5888 1.6658 24.4706 0.990562 21.0759C0.315321 17.6813 0.661879 14.1626 1.98641 10.9649C3.31095 7.7672 5.55396 5.03407 8.43182 3.11115C11.3097 1.18822 14.6931 0.161865 18.1543 0.161865C22.794 0.167012 27.2422 2.01241 30.523 5.29318C33.8038 8.57395 35.6492 13.0222 35.6543 17.6619ZM31.7654 17.6619C31.7654 14.9698 30.9671 12.3383 29.4715 10.0999C27.9759 7.8616 25.8501 6.11703 23.363 5.08684C20.8759 4.05664 18.1392 3.7871 15.4989 4.31229C12.8586 4.83747 10.4333 6.13381 8.52979 8.03735C6.62625 9.9409 5.32991 12.3662 4.80473 15.0065C4.27954 17.6468 4.54908 20.3835 5.57928 22.8706C6.60947 25.3577 8.35404 27.4835 10.5924 28.9791C12.8307 30.4747 15.4623 31.273 18.1543 31.273C21.763 31.2691 25.2228 29.8338 27.7745 27.2821C30.3263 24.7304 31.7615 21.2706 31.7654 17.6619ZM20.0987 23.6054V18.31C20.0987 17.4505 19.7573 16.6262 19.1496 16.0185C18.5418 15.4107 17.7175 15.0693 16.858 15.0693C16.3988 15.0686 15.9542 15.2304 15.6029 15.5262C15.2516 15.8219 15.0163 16.2324 14.9387 16.685C14.861 17.1376 14.9461 17.603 15.1787 17.9989C15.4114 18.3948 15.7767 18.6956 16.2099 18.848V24.1433C16.2099 25.0028 16.5513 25.8271 17.159 26.4349C17.7668 27.0426 18.5911 27.3841 19.4506 27.3841C19.9098 27.3848 20.3544 27.2229 20.7057 26.9272C21.057 26.6315 21.2923 26.221 21.3699 25.7684C21.4476 25.3158 21.3625 24.8503 21.1299 24.4544C20.8972 24.0585 20.5319 23.7578 20.0987 23.6054Z" fill="#CBB6F8"/>
</svg>
