<svg width="51" height="51" viewBox="0 0 51 51" fill="none" xmlns="http://www.w3.org/2000/svg">
<path d="M22.95 38.25H28.05V22.95H22.95V38.25ZM25.5 17.85C26.2225 17.85 26.8285 17.6052 27.3181 17.1156C27.8077 16.626 28.0517 16.0208 28.05 15.3C28.05 14.5775 27.8052 13.9723 27.3156 13.4844C26.826 12.9965 26.2208 12.7517 25.5 12.75C24.7775 12.75 24.1723 12.9948 23.6844 13.4844C23.1965 13.974 22.9517 14.5792 22.95 15.3C22.95 16.0225 23.1948 16.6285 23.6844 17.1181C24.174 17.6077 24.7792 17.8517 25.5 17.85ZM25.5 51C21.9725 51 18.6575 50.3302 15.555 48.9906C12.4525 47.651 9.75375 45.8345 7.45875 43.5412C5.16375 41.2462 3.3473 38.5475 2.0094 35.445C0.6715 32.3425 0.0017 29.0275 0 25.5C0 21.9725 0.6698 18.6575 2.0094 15.555C3.349 12.4525 5.16545 9.75375 7.45875 7.45875C9.75375 5.16375 12.4525 3.3473 15.555 2.0094C18.6575 0.6715 21.9725 0.0017 25.5 0C29.0275 0 32.3425 0.6698 35.445 2.0094C38.5475 3.349 41.2462 5.16545 43.5412 7.45875C45.8362 9.75375 47.6535 12.4525 48.9931 15.555C50.3327 18.6575 51.0017 21.9725 51 25.5C51 29.0275 50.3302 32.3425 48.9906 35.445C47.651 38.5475 45.8345 41.2462 43.5412 43.5412C41.2462 45.8362 38.5475 47.6535 35.445 48.9931C32.3425 50.3327 29.0275 51.0017 25.5 51ZM25.5 45.9C31.195 45.9 36.0187 43.9237 39.9712 39.9712C43.9237 36.0187 45.9 31.195 45.9 25.5C45.9 19.805 43.9237 14.9812 39.9712 11.0287C36.0187 7.07625 31.195 5.1 25.5 5.1C19.805 5.1 14.9812 7.07625 11.0287 11.0287C7.07625 14.9812 5.1 19.805 5.1 25.5C5.1 31.195 7.07625 36.0187 11.0287 39.9712C14.9812 43.9237 19.805 45.9 25.5 45.9Z" fill="white"/>
</svg>
