<svg width="52" height="55" viewBox="0 0 52 55" fill="none" xmlns="http://www.w3.org/2000/svg">
<path d="M26.0019 17.8197C28.2121 17.8197 30.0039 16.293 30.0039 14.4098C30.0039 12.5266 28.2121 11 26.0019 11C23.7917 11 22 12.5266 22 14.4098C22 16.293 23.7917 17.8197 26.0019 17.8197Z" fill="black"/>
<path d="M26.309 39.7814L15.4414 24.2305C13.6626 22.1023 12.5171 19.5058 12.1383 16.7434C11.7594 13.981 12.1629 11.1664 13.3017 8.62742C14.4404 6.0884 16.2676 3.92947 18.5705 2.40206C20.8733 0.874646 23.557 0.041621 26.309 0C30.1238 0.0381996 33.7682 1.6068 36.444 4.36224C39.1197 7.11768 40.6088 10.8354 40.585 14.701C40.5864 18.0733 39.4534 21.3453 37.3729 23.9773L26.309 39.7814ZM26.309 3.61649C23.4393 3.64989 20.6999 4.83593 18.6925 6.9142C16.685 8.99247 15.5735 11.7931 15.6021 14.701C15.614 17.3552 16.5564 19.9187 18.2609 21.934L26.309 33.4887L34.5712 21.699C36.1418 19.7125 37.0033 17.2463 37.016 14.701C37.0446 11.7931 35.9331 8.99247 33.9256 6.9142C31.9181 4.83593 29.1788 3.64989 26.309 3.61649Z" fill="black"/>
<path d="M47.619 24H43.956V27.4444H47.619V51.5556H3.663V27.4444H7.326V24H3.663C2.69151 24 1.75981 24.3629 1.07287 25.0089C0.385922 25.6548 0 26.5309 0 27.4444V51.5556C0 52.4691 0.385922 53.3452 1.07287 53.9911C1.75981 54.6371 2.69151 55 3.663 55H47.619C48.5905 55 49.5222 54.6371 50.2091 53.9911C50.896 53.3452 51.282 52.4691 51.282 51.5556V27.4444C51.282 26.5309 50.896 25.6548 50.2091 25.0089C49.5222 24.3629 48.5905 24 47.619 24Z" fill="black"/>
</svg>
