<svg width="664" height="55" viewBox="0 0 664 55" fill="none" xmlns="http://www.w3.org/2000/svg">
<path d="M0.998657 50.0015L8.35332 44.6738C15.708 39.3462 30.4173 28.6908 45.1266 24.8569C59.836 21.023 74.5453 24.0107 89.2546 19.8438C103.964 15.677 118.673 4.3557 133.383 7.84766C148.092 11.3396 162.801 29.6448 177.511 41.3426C192.22 53.0403 206.929 58.1306 221.639 50.0964C236.348 42.0621 251.057 20.9034 265.767 17.4369C280.476 13.9705 295.185 28.1964 309.895 33.8863C324.604 39.5761 339.313 36.7299 354.023 37.8688C368.732 39.0076 383.441 44.1315 398.151 47.3022C412.86 50.4729 427.569 51.6905 442.279 48.7382C456.988 45.786 471.697 38.6639 486.407 28.0632C501.116 17.4625 515.825 3.3831 530.535 1.61876C545.244 -0.145584 559.953 10.4051 574.663 21.3716C589.372 32.3381 604.081 43.7204 618.79 44.5105C633.5 45.3007 648.209 35.4987 655.564 30.5977L662.918 25.6967" stroke="#3A3EAC" stroke-width="2"/>
</svg>
