<svg width="36" height="32" viewBox="0 0 36 32" fill="none" xmlns="http://www.w3.org/2000/svg">
<path fill-rule="evenodd" clip-rule="evenodd" d="M17.7706 4.00001C18.2182 4.00001 18.6474 4.15804 18.9639 4.43935C19.2803 4.72065 19.4581 5.10218 19.4581 5.50001L19.4581 22.88L26.7031 16.44C27.023 16.175 27.4461 16.0308 27.8833 16.0377C28.3205 16.0445 28.7376 16.2019 29.0468 16.4768C29.3559 16.7516 29.533 17.1224 29.5408 17.511C29.5485 17.8996 29.3862 18.2757 29.0881 18.56L18.9631 27.56C18.6467 27.8409 18.2178 27.9987 17.7706 27.9987C17.3234 27.9987 16.8945 27.8409 16.5781 27.56L6.45311 18.56C6.15503 18.2757 5.99275 17.8996 6.00047 17.511C6.00818 17.1224 6.18528 16.7516 6.49446 16.4768C6.80364 16.2019 7.22076 16.0445 7.65793 16.0377C8.09511 16.0308 8.51822 16.175 8.83811 16.44L16.0831 22.88L16.0831 5.50001C16.0831 5.10218 16.2609 4.72065 16.5774 4.43935C16.8938 4.15804 17.3231 4.00001 17.7706 4.00001Z" fill="#F24E1E"/>
</svg>
