<svg width="662" height="71" viewBox="0 0 662 71" fill="none" xmlns="http://www.w3.org/2000/svg">
<path d="M0.932983 43.4785L8.26317 51.2618C15.5934 59.045 33.524 68.9546 48.1844 67.4549C62.8447 65.9552 77.5051 47.3894 92.1655 39.2789C106.826 31.1683 118.216 39.1702 132.876 37.4548C147.537 35.7394 162.197 29.9638 176.858 35.7806C191.518 41.5974 206.178 59.0066 220.839 65.7284C235.499 72.4503 250.159 68.4848 264.82 67.4549C279.48 66.4251 294.141 68.3309 308.801 62.5368C323.461 56.7427 338.122 43.2487 352.782 45.0996C367.443 46.9506 382.103 64.1465 396.763 67.3215C411.424 70.4966 426.084 59.6507 440.744 49.7417C455.405 39.8326 470.065 30.8605 484.726 30.3008C499.386 29.7411 514.046 37.594 528.707 44.8892C543.367 52.1845 558.027 58.9222 572.688 62.0444C587.348 65.1666 602.009 64.6732 616.669 53.9056C631.329 43.1381 645.99 22.0963 653.32 11.5753L660.65 1.05444" stroke="#F20000" stroke-width="2"/>
</svg>
