<svg width="25" height="21" viewBox="0 0 25 21" fill="none" xmlns="http://www.w3.org/2000/svg">
<path d="M24.5967 16.7697L15.1738 1.43696C14.9009 0.999616 14.5105 0.63685 14.0415 0.384749C13.5725 0.132648 13.0412 0 12.5005 0C11.9598 0 11.4286 0.132648 10.9596 0.384749C10.4905 0.63685 10.1002 0.999616 9.82724 1.43696L0.404404 16.7697C0.139574 17.1941 0 17.6768 0 18.1685C0 18.6601 0.139574 19.1429 0.404404 19.5673C0.674309 20.0068 1.06415 20.3711 1.53394 20.6229C2.00372 20.8746 2.53654 21.0047 3.07771 20.9999H21.9234C22.4642 21.0044 22.9965 20.8741 23.4659 20.6224C23.9353 20.3706 24.3248 20.0065 24.5945 19.5673C24.8597 19.143 24.9996 18.6604 25 18.1687C25.0004 17.6771 24.8612 17.1943 24.5967 16.7697ZM22.3555 18.3547C22.3116 18.4247 22.2484 18.4823 22.1726 18.5214C22.0967 18.5605 22.011 18.5796 21.9244 18.5768H3.07771C2.99117 18.5796 2.90544 18.5605 2.82958 18.5214C2.75371 18.4823 2.69053 18.4247 2.6467 18.3547C2.60953 18.2981 2.58985 18.2329 2.58985 18.1664C2.58985 18.1 2.60953 18.0348 2.6467 17.9782L12.0695 2.64545C12.1162 2.57815 12.1801 2.52285 12.2553 2.48456C12.3306 2.44628 12.4149 2.42623 12.5005 2.42623C12.5862 2.42623 12.6705 2.44628 12.7457 2.48456C12.821 2.52285 12.8849 2.57815 12.9315 2.64545L22.3533 17.9782C22.3908 18.0346 22.4108 18.0997 22.4112 18.1662C22.4116 18.2326 22.3923 18.2979 22.3555 18.3547ZM11.2075 11.7116V8.4809C11.2075 8.15959 11.3438 7.85143 11.5862 7.62423C11.8287 7.39703 12.1576 7.26939 12.5005 7.26939C12.8435 7.26939 13.1723 7.39703 13.4148 7.62423C13.6573 7.85143 13.7936 8.15959 13.7936 8.4809V11.7116C13.7936 12.0329 13.6573 12.3411 13.4148 12.5683C13.1723 12.7955 12.8435 12.9231 12.5005 12.9231C12.1576 12.9231 11.8287 12.7955 11.5862 12.5683C11.3438 12.3411 11.2075 12.0329 11.2075 11.7116ZM14.2246 15.75C14.2246 16.0695 14.1234 16.3818 13.934 16.6474C13.7446 16.9131 13.4753 17.1201 13.1603 17.2424C12.8453 17.3646 12.4986 17.3966 12.1642 17.3343C11.8298 17.272 11.5226 17.1181 11.2815 16.8922C11.0404 16.6663 10.8762 16.3785 10.8096 16.0651C10.7431 15.7518 10.7773 15.427 10.9078 15.1318C11.0382 14.8366 11.2592 14.5844 11.5427 14.4069C11.8262 14.2294 12.1596 14.1346 12.5005 14.1346C12.9578 14.1346 13.3963 14.3048 13.7196 14.6078C14.0429 14.9107 14.2246 15.3216 14.2246 15.75Z" fill="#B84242"/>
</svg>
