<svg width="87" height="77" viewBox="0 0 87 77" fill="none" xmlns="http://www.w3.org/2000/svg">
<mask id="mask0_1187_797" style="mask-type:luminance" maskUnits="userSpaceOnUse" x="0" y="0" width="87" height="77">
<path d="M2.55254 35.4089C2.50358 34.8854 2.57236 34.3582 2.7545 33.8606C2.93664 33.3631 3.22816 32.9061 3.61058 32.5188C3.99299 32.1314 4.45794 31.8221 4.97592 31.6104C5.49391 31.3988 6.05362 31.2894 6.61954 31.2893H14.4167C15.4996 31.2893 16.5382 31.6888 17.304 32.3998C18.0698 33.1109 18.5 34.0753 18.5 35.081V71.1018C18.5 72.1074 18.0698 73.0718 17.304 73.7829C16.5382 74.494 15.4996 74.8935 14.4167 74.8935H9.99441C8.97241 74.8937 7.98748 74.538 7.23412 73.8968C6.48077 73.2555 6.01377 72.3752 5.92537 71.4298L2.55254 35.4089ZM30.75 33.8961C30.75 32.3111 31.8117 30.8931 33.3531 30.2181C36.7198 28.7432 42.4549 25.78 45.0417 21.7741C48.3757 16.6099 49.0045 7.28046 49.1066 5.14386C49.1209 4.84432 49.1127 4.54477 49.1556 4.24902C49.7089 0.546463 57.404 4.87086 60.3542 9.44361C61.9569 11.9234 62.161 15.1823 61.9936 17.7284C61.8119 20.4508 60.9524 23.0803 60.1092 25.6928L58.3125 31.2609H80.4789C81.1098 31.2608 81.7321 31.3965 82.297 31.6573C82.8619 31.9181 83.3541 32.297 83.7348 32.764C84.1156 33.2311 84.3747 33.7738 84.4916 34.3495C84.6086 34.9251 84.5804 35.5181 84.4091 36.082L73.4453 72.1331C73.2033 72.9282 72.6882 73.6282 71.9784 74.1264C71.2686 74.6247 70.4029 74.894 69.5131 74.8935H34.8333C33.7504 74.8935 32.7118 74.494 31.946 73.7829C31.1802 73.0718 30.75 72.1074 30.75 71.1018V33.8961Z" fill="#555555" stroke="white" stroke-width="4" stroke-linecap="round" stroke-linejoin="round"/>
</mask>
<g mask="url(#mask0_1187_797)">
<path d="M-6 -6.62744H92V84.3726H-6V-6.62744Z" fill="#4ECB71"/>
</g>
</svg>
