<svg width="39" height="39" viewBox="0 0 39 39" fill="none" xmlns="http://www.w3.org/2000/svg">
<path d="M4.33333 0H34.6667C35.8159 0 36.9181 0.456546 37.7308 1.2692C38.5435 2.08186 39 3.18406 39 4.33333V34.6667C39 37.0717 37.0717 39 34.6667 39H4.33333C3.18406 39 2.08186 38.5435 1.2692 37.7308C0.456546 36.9181 0 35.8159 0 34.6667V4.33333C0 1.95 1.95 0 4.33333 0ZM10.8333 30.3333H28.1667V26H10.8333V30.3333ZM28.1667 15.1667H22.75V8.66667H16.25V15.1667H10.8333L19.5 23.8333L28.1667 15.1667Z" fill="#545454"/>
</svg>
