<svg width="17" height="18" viewBox="0 0 17 18" fill="none" xmlns="http://www.w3.org/2000/svg">
<path fill-rule="evenodd" clip-rule="evenodd" d="M0.61612 0.609219C0.940937 0.219116 1.38124 0 1.84032 0C2.29939 0 2.73969 0.219116 3.06451 0.609219L8.83902 7.55299C9.16343 7.94357 9.34565 8.47303 9.34565 9.02506C9.34565 9.5771 9.16343 10.1066 8.83902 10.4971L3.06451 17.4409C2.73611 17.8089 2.30176 18.0092 1.85297 17.9997C1.40417 17.9902 0.975967 17.7715 0.65857 17.3899C0.341173 17.0082 0.159364 16.4933 0.151445 15.9536C0.143527 15.4139 0.310117 14.8916 0.61612 14.4968L5.16412 9.02506L0.61381 3.55338C0.289397 3.16279 0.107178 2.63333 0.107178 2.0813C0.107178 1.52927 0.289397 0.999807 0.61381 0.609219H0.61612ZM7.54553 0.609219C7.87035 0.219116 8.31065 0 8.76972 0C9.2288 0 9.6691 0.219116 9.99392 0.609219L15.7684 7.55299C16.0928 7.94357 16.2751 8.47303 16.2751 9.02506C16.2751 9.5771 16.0928 10.1066 15.7684 10.4971L9.99392 17.4409C9.66552 17.8089 9.23117 18.0092 8.78238 17.9997C8.33358 17.9902 7.90538 17.7715 7.58798 17.3899C7.27058 17.0082 7.08877 16.4933 7.08085 15.9536C7.07294 15.4139 7.23953 14.8916 7.54553 14.4968L12.0935 9.02506L7.54322 3.55338C7.21881 3.16279 7.03659 2.63333 7.03659 2.0813C7.03659 1.52927 7.21881 0.999807 7.54322 0.609219H7.54553Z" fill="#3A3EAC"/>
</svg>
