<svg width="26" height="32" viewBox="0 0 26 32" fill="none" xmlns="http://www.w3.org/2000/svg">
<path opacity="0.6" d="M10.1111 28.9524H15.8889C15.8889 30.6286 14.5889 32 13 32C11.4111 32 10.1111 30.6286 10.1111 28.9524ZM26 25.9048V27.4286H0V25.9048L2.88889 22.8571V13.7143C2.88889 8.99048 5.77778 4.87619 10.1111 3.50476V3.04762C10.1111 1.37143 11.4111 0 13 0C14.5889 0 15.8889 1.37143 15.8889 3.04762V3.50476C20.2222 4.87619 23.1111 8.99048 23.1111 13.7143V22.8571L26 25.9048ZM20.2222 13.7143C20.2222 9.44762 17.0444 6.09524 13 6.09524C8.95556 6.09524 5.77778 9.44762 5.77778 13.7143V24.381H20.2222V13.7143Z" fill="#3A3EAC"/>
</svg>
