<svg width="55" height="46" viewBox="0 0 55 46" fill="none" xmlns="http://www.w3.org/2000/svg">
<path d="M0.908203 46L27.5317 0L54.1551 46H0.908203ZM9.25828 41.1579H45.805L27.5317 9.68421L9.25828 41.1579ZM27.5317 38.7368C28.2174 38.7368 28.7926 38.5044 29.2573 38.0396C29.722 37.5747 29.9536 37.0001 29.952 36.3158C29.952 35.6298 29.7196 35.0552 29.2549 34.592C28.7902 34.1288 28.2158 33.8964 27.5317 33.8947C26.8459 33.8947 26.2715 34.1272 25.8084 34.592C25.3453 35.0568 25.113 35.6314 25.1113 36.3158C25.1113 37.0018 25.3437 37.5772 25.8084 38.042C26.2731 38.5068 26.8475 38.7385 27.5317 38.7368ZM25.1113 31.4737H29.952V19.3684H25.1113V31.4737Z" fill="white"/>
</svg>
